<?xml version="1.0" encoding="utf-8"?>
<!-- Generator: Adobe Illustrator 23.1.0, SVG Export Plug-In . SVG Version: 6.00 Build 0)  -->
<svg version="1.1" id="圖層_1" xmlns="http://www.w3.org/2000/svg" xmlns:xlink="http://www.w3.org/1999/xlink" x="0px" y="0px"
	 viewBox="0 0 512 512" style="enable-background:new 0 0 512 512;" xml:space="preserve">
<style type="text/css">
	.st0{fill:#C7F9F9;}
	.st1{fill:#8BEDF2;}
</style>
<g id="Layer_1">
	<g>
		<g>
			<g>
				<path class="st0" d="M448.5,403.3c-22.3-21.3-63.7-68.1-50.3-111c15.6-50,67.8-78.5,67.8-78.5S315.4,196.3,270.8,354
					C345.7,375.9,397.8,410.8,448.5,403.3z"/>
				<path class="st0" d="M197.2,339.4c24.8,2.5,47.3,7.2,68.1,13.1c-26.4-28-42.8-67.4-42.8-108c0-126.6,146.9-138.4,146.9-138.4
					s-141.7-68.3-240.6,25.7C44.4,211.9,48.5,328,51.5,360.2C82,344.6,128.5,332.4,197.2,339.4z"/>
			</g>
		</g>
		<path class="st1" d="M270.8,354c-1.8-0.5-3.6-1.1-5.5-1.6c-20.8-5.8-43.4-10.6-68.1-13.1c-68.7-7-115.2,5.2-145.7,20.8
			C13.2,379.8,0,404.9,0,404.9s50.3-62.1,186-36.5s264.7,124.8,326,0c-22,21.5-42.6,31.8-63.5,34.9
			C397.8,410.8,345.7,375.9,270.8,354z"/>
	</g>
</g>
</svg>
